# xmcd
# Track frame offsets:
# 150
# 14399
# 25826
# 38242
# 55876
# 70989
# 88631
# 105064
# 117879
# 133009
#
# Disc length: 2019 seconds
# Revision: 0
# Processed by: cddbd v1.4PL0 Copyright (c) Steve Scherf et al.
# Submitted via: VisiTrax 2.9.5.180 - For more info visit www.synapsa.com
#
DISCID=7907e10a
DTITLE=Dee Mann - Do I have to grow wings?
DYEAR=1900
DGENRE=
TTITLE0=Do I have to grow wings
TTITLE1=I'm sorry but I'm not sorry for loving you
TTITLE2=Match box memories
TTITLE3=She ain't me
TTITLE4=Phone shopping club
TTITLE5=Friends
TTITLE6=The fire place
TTITLE7=Leavin' you for me
TTITLE8=To me you are everything
TTITLE9=(Why do we) Take christ out of christmas
EXTD=
EXTT0=
EXTT1=
EXTT2=
EXTT3=
EXTT4=
EXTT5=
EXTT6=
EXTT7=
EXTT8=
EXTT9=
PLAYORDER=
